<svg xmlns="http://www.w3.org/2000/svg" xmlns:xlink="http://www.w3.org/1999/xlink" width="250" height="64"><path d="M43 7.1c.9 2.6 1.4 5.4 1.4 8.3 0 14.3-11.8 25.9-26.5 25.9-6 0-11.4-1.9-15.9-5.2 3.7 9.7 13.1 16.6 24.1 16.6A25.91 25.91 0 0 0 52 26.8c.1-7.9-3.5-14.9-9-19.7z" fill="#80CF12"/><path d="M13.5 25.5c0-11.3 8.2-20.6 19-23.5a26.71 26.71 0 0 0-6.4-.8C11.8 1.1.2 12.7.2 26.9s11.6 25.8 25.9 25.8c4.4 0 8.6-1.1 12.2-3.1-13.7-.5-24.8-10.8-24.8-24.1z" fill="#5DAAE0"/><path d="M22.5 11.4c13.5 0 24.4 11.6 24.4 26 0 1.9-.2 3.8-.6 5.6 3.9-4.5 6.3-10.4 6.3-16.9 0-14.3-11.7-26-26.2-26C12 .1.3 11.7.3 26.1v.6c3.8-9 12.3-15.3 22.2-15.3z" fill="#FC7500"/><g fill-rule="evenodd"><g fill="#8F8F8F"><path d="M61.7 21.8c1.6-.7 3.1-1.3 4.7-1.5 4.2-.5 8.7 1.6 8.9 7.2.1 4.9 0 9.8 0 14.7 0 1.1-.3 1.7-1.4 1.9-.9.1-1.7-.8-1.7-1.9v-14c.1-3.5-2.3-5.3-5.6-5.1a8.38 8.38 0 0 0-4.1 1.4c-.6.4-.8.8-.8 1.5v15.3c0 .5 0 .9-.1 1.4-.2.9-.8 1.4-1.7 1.3s-1.3-.7-1.3-1.7V13.1c0-1.5.3-1.9 1.5-2 1.1 0 1.6.5 1.6 2v8.7zm58.9 0c1.6-.7 3.1-1.3 4.7-1.5 4.2-.5 8.8 1.6 8.9 7.2.1 4.9 0 9.8 0 14.7 0 1.1-.3 1.7-1.4 1.9-.9.1-1.7-.8-1.7-1.9v-14c.1-3.5-2.3-5.3-5.6-5.1a8.38 8.38 0 0 0-4.1 1.4c-.6.4-.8.8-.8 1.5v15.3c0 .5 0 .9-.1 1.4-.2.9-.8 1.4-1.7 1.3s-1.3-.7-1.3-1.7V13.1c0-1.5.3-1.9 1.4-2 1.1 0 1.6.5 1.6 2v7.4c.1.3.1.7.1 1.3zm108.5 9.8v9.3c0 1.1-.4 1.8-1.4 2.1-3.5 1.1-7.1 1.8-10.8.6-2.7-.9-4.5-3.3-4.6-6.2-.1-5.1 0-10.3 0-15.4 0-.9.5-1.4 1.3-1.5s1.3.3 1.6 1.1c.2.5.2 1 .2 1.5v12.6c-.1 4.6 2.9 6 6.6 5.6 1-.1 1.9-.4 2.9-.5.8-.1 1.1-.5 1-1.4V23.1c0-.6 0-1.1.2-1.6.3-.8.9-1.2 1.7-1 .8.1 1.2.6 1.2 1.5.1 3.2.1 6.4.1 9.6zm14.1-11.2c1.4.1 3.2.4 4.9 1.1.9.4 1.7.9 1.2 1.9-.4.9-1.2 1.1-2.2.8-1.9-.6-3.7-1.3-5.8-.7-1.6.5-2.7 1.6-2.8 3 0 1.5.9 2.4 2.2 3l5.6 2.6c2.9 1.4 4.1 3.7 3.6 6.8-.4 2.5-2.7 4.7-5.4 5.2-2.8.5-5.4-.1-8-1.1-.9-.4-1.1-1.2-.8-2s1-.9 1.8-.7c1.2.4 2.5.8 3.8 1 2.5.4 4.9-.7 5.6-2.7.4-1.3-.1-2.7-1.4-3.6-1.8-1.2-3.8-1.9-5.8-2.7-3.8-1.6-4.8-4.5-3.7-8 .8-2.4 3.6-3.9 7.2-3.9zM141.2 34v-7.5c-.2-4.4 3.4-6.7 7.4-6.2.6.1 1.2.1 1.8.3 1 .2 1.6 1 1.4 1.9-.3 1-1.1 1.1-2 1-1-.1-1.9-.5-2.9-.2-1.7.5-2.5 1.4-2.5 3.1v15c0 .5 0 1-.2 1.5-.3.8-.8 1.2-1.6 1.1s-1.3-.6-1.3-1.5l-.1-8.5zm-58.5-2V22c0-1 .4-1.7 1.3-1.8 1-.1 1.5.6 1.7 1.5.1.4.1.8.1 1.2v18.5c0 .5 0 .9-.1 1.4-.2.9-.8 1.3-1.6 1.2-.9-.1-1.3-.7-1.3-1.6L82.7 32zm119.4.2v-10c0-1 .4-1.7 1.3-1.8s1.5.5 1.7 1.4c.1.4.1.9.1 1.3v18.5c0 .5 0 1-.2 1.5-.3.8-.8 1.2-1.6 1.1s-1.3-.6-1.3-1.5c.1-3.5 0-7 0-10.5z"/></g></g><g fill="#8F8F8F"><path d="M109.5 34.7v-11c0-1.2-.5-2.1-1.8-2.5-2.9-.9-5.8-1.4-8.9-.9-3.4.5-6.2 3.5-6.3 6.9v9.7c.1 2.9 2.1 5.6 4.9 6.5s5.6.7 8.2-.8c.6-.4.8-.3.8.4v3.1c0 2.6-2.1 4.6-4.7 4.7-2 .1-3.9-.2-5.7-1-.8-.4-1.7-.4-2.2.5-.5 1 .1 1.6 1.1 2 1 .5 2.1.8 3.2 1a12.3 12.3 0 0 0 5.4 0c3.9-1 5.9-4 6-7.9.1-3.4 0-7 0-10.7zm-3.9 5c-2.4 1.5-4.8 2.1-7.5.8-1.7-.8-2.4-2.2-2.4-3.9-.1-2.7 0-5.5 0-8.2 0-3.3 1.7-5.1 5-5.3 1.7-.1 3.3.3 4.9.6.7.1.9.5.9 1.2v13.2c-.1.7-.3 1.2-.9 1.6zm89.1-26.5c0-1.3-.5-1.9-1.6-1.9-1 0-1.5.6-1.5 1.9v7.9c0 1-.3 1.1-1.1.6-1.1-.7-2.3-1-3.6-1.2-4.4-.5-9 1.8-9.2 7.3a147.33 147.33 0 0 0 0 9.4c.1 3.1 2.3 5.8 5.4 6.7 3.3.9 6.4.3 9.6-.6 1.7-.5 2-1 2-2.8V13.2zM191 40.8c-2.1.4-4.3.9-6.4.4-2.2-.6-3.6-2.2-3.6-4.5v-8.2c0-3.6 2.8-5.8 6.3-5.1.4.1.9.1 1.3.3 2.8.9 3.2 1.4 3.2 4.3v11.8c-.2.5-.2.9-.8 1zm-19.9-7.1v-7.3c-.1-1.9-.8-3.6-2.5-4.6-3.9-2.4-7.8-1.9-11.7-.1-.8.4-1.6.9-1.1 2 .4 1 1.2 1.2 2.4.7s2.3-.9 3.6-1.2c3.9-.8 6.3 1.1 6.2 5 0 2.1.2 1.8-1.9 1.8-2.6 0-5.2 0-7.7.9-2.8 1-4.1 3.1-4.2 5.9-.1 2.6.8 4.9 3.5 6.1 4.1 1.8 8.3 1.3 12.4-.1.8-.3 1.1-1 1.1-1.8-.1-2.4-.1-4.9-.1-7.3zm-3.1 0v4.9c0 1.9 0 1.9-1.9 2.3s-3.8.4-5.8 0c-1.9-.4-3.2-2.1-3.1-4.1.1-1.9 1.7-3.5 3.8-3.8 2-.3 4-.2 6-.2.8 0 1 .3 1 .9z"/></g><path d="M206 14.8c0 1.3-1.1 2.4-2.4 2.4s-2.4-1.1-2.4-2.4 1.1-2.4 2.4-2.4c1.3.1 2.4 1.1 2.4 2.4z" fill="#FC7500"/><path d="M86.8 14.8c0 1.3-1.1 2.4-2.4 2.4S82 16.1 82 14.8s1.1-2.4 2.4-2.4c1.4.1 2.4 1.1 2.4 2.4z" fill="#8F8F8F"/><g fill="#727271"><path d="M143.1 53.7v7.8h-1v-7.8h1zm1.8 3.7v-1.5h.9l.1.9c.3-.5.9-1.1 1.8-1.1.8 0 2 .5 2 2.4v3.3h-1v-3.2c0-.9-.3-1.7-1.3-1.7-.7 0-1.2.5-1.4 1 0 .1-.1.3-.1.5v3.4h-1v-4z"/><use xlink:href="#A"/><use xlink:href="#B"/><path d="M165.6 55.9v4.7c0 1.3-.3 2.1-.8 2.6s-1.3.7-2 .7-1.4-.2-1.9-.5l.3-.8c.4.2.9.4 1.6.4 1 0 1.8-.5 1.8-2v-.6c-.3.5-.9.9-1.8.9-1.4 0-2.4-1.2-2.4-2.7 0-1.9 1.2-3 2.5-3 1 0 1.5.5 1.7 1v-.8h1zm-1 2.2c0-.2 0-.3-.1-.5-.2-.6-.7-1.1-1.4-1.1-1 0-1.7.8-1.7 2.1 0 1.1.6 2 1.7 2 .6 0 1.2-.4 1.4-1 .1-.2.1-.4.1-.5v-1zm2.6-.4V56h.9v1.1c.3-.8.9-1.2 1.5-1.2h.3v1h-.3c-.7 0-1.2.5-1.4 1.3v3.5h-1v-4z"/><use xlink:href="#C"/><use xlink:href="#A" x="25.1"/><use xlink:href="#B" x="25.1"/><path d="M190.8 53.3v8.2h-.9v-1c-.3.6-1 1.1-1.9 1.1-1.4 0-2.4-1.1-2.4-2.8 0-1.9 1.1-3 2.5-3 .9 0 1.4.4 1.7.9v-3.3h1zm-1 4.9v-.4c-.2-.6-.7-1.2-1.5-1.2-1.1 0-1.7.9-1.7 2.2 0 1.1.6 2.1 1.7 2.1.7 0 1.3-.5 1.5-1.2v-1.5zm5.2-4.4a10.11 10.11 0 0 1 1.9-.2c1.1 0 1.8.2 2.3.6.4.3.6.9.6 1.5 0 1-.6 1.7-1.5 2 .6.2 1 .8 1.1 1.6.3 1.1.4 1.8.6 2.1h-1c-.1-.2-.3-.9-.5-1.9-.2-1.1-.6-1.5-1.6-1.5h-.9v3.4h-1v-7.6zm1 3.6h1c1.1 0 1.8-.6 1.8-1.5 0-1-.7-1.4-1.8-1.5-.5 0-.8 0-1 .1v2.9zm5.8 1.5c0 1.4.9 1.9 1.9 1.9.7 0 1.2-.1 1.5-.3l.2.7c-.4.2-1 .3-1.9.3-1.7 0-2.7-1.1-2.7-2.8s1-3 2.6-3c1.8 0 2.3 1.6 2.3 2.6v.5h-3.9zm2.9-.7c0-.6-.3-1.7-1.4-1.7-1 0-1.5.9-1.6 1.7h3zm6.3 3.1c-.3.1-.9.3-1.6.3-1.7 0-2.8-1.1-2.8-2.9 0-1.7 1.2-3 3-3 .6 0 1.1.2 1.4.3l-.2.8c-.2-.1-.6-.3-1.2-.3-1.3 0-2 .9-2 2.1 0 1.3.8 2.1 1.9 2.1.6 0 1-.2 1.2-.3l.3.9z"/><use xlink:href="#B" x="57"/><path d="M219 54.4c0 .3-.2.6-.6.6s-.6-.3-.6-.6c0-.4.3-.6.6-.6.4-.1.6.2.6.6zm-1.1 7.1v-5.6h1v5.6h-1zm3.1-5.6l1.1 3.1c.2.5.3 1 .5 1.4.1-.5.3-.9.5-1.4l1.1-3.1h1.1l-2.2 5.6h-1l-2.1-5.6h1z"/><use xlink:href="#C" x="55.2"/><path d="M231.6 61.5v-8.2h1v3.5c.4-.6 1-1 1.9-1 1.4 0 2.4 1.2 2.4 2.9 0 2-1.3 3-2.5 3-.8 0-1.5-.3-1.9-1.1v.9h-.9zm1.1-2.2v.4c.2.7.8 1.2 1.5 1.2 1.1 0 1.7-.9 1.7-2.1 0-1.1-.6-2.1-1.7-2.1-.7 0-1.3.5-1.5 1.2 0 .1-.1.3-.1.4v1zm5.5-6h1v8.2h-1v-8.2z"/><use xlink:href="#B" x="85.9"/><path d="M246.6 60.5c.3.2.8.4 1.3.4.7 0 1.1-.4 1.1-.8 0-.5-.3-.8-1-1-1-.4-1.5-.9-1.5-1.6 0-.9.7-1.6 1.9-1.6.6 0 1.1.2 1.4.3l-.3.7c-.2-.1-.6-.3-1.1-.3-.6 0-.9.3-.9.8s.3.7 1.1.9c1 .4 1.5.9 1.5 1.7 0 1-.8 1.7-2.1 1.7-.6 0-1.2-.2-1.6-.4l.2-.8z"/></g><defs><path id="A" d="M152.5 54.3v1.6h1.5v.8h-1.5v3c0 .7.2 1.1.8 1.1.3 0 .5 0 .6-.1v.8c-.2.1-.5.1-.9.1-.5 0-.9-.2-1.1-.4-.3-.3-.4-.8-.4-1.5v-3h-.9v-.8h.9v-1.3l1-.3z"/><path id="B" d="M155.6 58.9c0 1.4.9 1.9 1.9 1.9.7 0 1.2-.1 1.5-.3l.2.7c-.4.2-1 .3-1.9.3-1.7 0-2.7-1.1-2.7-2.8s1-3 2.6-3c1.8 0 2.3 1.6 2.3 2.6v.5h-3.9zm3-.7c0-.6-.3-1.7-1.4-1.7-1 0-1.5.9-1.6 1.7h3z"/><path id="C" d="M174 61.5l-.1-.7c-.3.4-.9.8-1.7.8-1.1 0-1.7-.8-1.7-1.6 0-1.4 1.2-2.1 3.4-2.1v-.1c0-.5-.1-1.3-1.3-1.3-.5 0-1.1.2-1.5.4l-.2-.7c.5-.3 1.1-.5 1.8-.5 1.7 0 2.1 1.2 2.1 2.3v2.1c0 .5 0 1 .1 1.3h-.9zm-.2-2.8c-1.1 0-2.4.2-2.4 1.3 0 .7.4 1 1 1 .7 0 1.2-.5 1.4-.9 0-.1.1-.2.1-.3v-1.1z"/></defs></svg>